<svg width="32" height="32" viewBox="0 0 32 32" fill="none" xmlns="http://www.w3.org/2000/svg">
<g id="Frame 120">
<rect width="32" height="32" rx="10" fill="#E9F0FE"/>
<g id="Group">
<path id="Vector" d="M14.5111 9.17067C14.8898 7.60978 17.1102 7.60978 17.4889 9.17067C17.5457 9.40515 17.6571 9.62291 17.814 9.80622C17.9708 9.98953 18.1688 10.1332 18.3917 10.2256C18.6146 10.3179 18.8561 10.3563 19.0967 10.3377C19.3372 10.319 19.57 10.2438 19.776 10.1182C21.1476 9.28267 22.7182 10.8524 21.8827 12.2249C21.7572 12.4308 21.6822 12.6634 21.6636 12.9038C21.645 13.1442 21.6833 13.3856 21.7756 13.6083C21.8678 13.8311 22.0113 14.029 22.1944 14.1858C22.3775 14.3427 22.5951 14.4541 22.8293 14.5111C24.3902 14.8898 24.3902 17.1102 22.8293 17.4889C22.5948 17.5457 22.3771 17.6571 22.1938 17.814C22.0105 17.9708 21.8668 18.1688 21.7744 18.3917C21.6821 18.6146 21.6437 18.8561 21.6623 19.0967C21.681 19.3372 21.7562 19.57 21.8818 19.776C22.7173 21.1476 21.1476 22.7182 19.7751 21.8827C19.5692 21.7572 19.3366 21.6822 19.0962 21.6636C18.8558 21.645 18.6144 21.6833 18.3917 21.7756C18.1689 21.8678 17.971 22.0113 17.8142 22.1944C17.6573 22.3775 17.5459 22.5951 17.4889 22.8293C17.1102 24.3902 14.8898 24.3902 14.5111 22.8293C14.4543 22.5948 14.3429 22.3771 14.186 22.1938C14.0292 22.0105 13.8312 21.8668 13.6083 21.7744C13.3854 21.6821 13.1439 21.6437 12.9033 21.6623C12.6628 21.681 12.43 21.7562 12.224 21.8818C10.8524 22.7173 9.28178 21.1476 10.1173 19.7751C10.2428 19.5692 10.3178 19.3366 10.3364 19.0962C10.355 18.8558 10.3167 18.6144 10.2244 18.3917C10.1322 18.1689 9.98868 17.971 9.80558 17.8142C9.62248 17.6573 9.40495 17.5459 9.17067 17.4889C7.60978 17.1102 7.60978 14.8898 9.17067 14.5111C9.40515 14.4543 9.62291 14.3429 9.80622 14.186C9.98953 14.0292 10.1332 13.8312 10.2256 13.6083C10.3179 13.3854 10.3563 13.1439 10.3377 12.9033C10.319 12.6628 10.2438 12.43 10.1182 12.224C9.28267 10.8524 10.8524 9.28178 12.2249 10.1173C13.1138 10.6578 14.2658 10.1796 14.5111 9.17067Z" stroke="#5D6785" stroke-width="1.5" stroke-linecap="round" stroke-linejoin="round"/>
<path id="Vector_2" d="M13.3333 16C13.3333 16.7073 13.6143 17.3855 14.1144 17.8856C14.6145 18.3857 15.2927 18.6667 16 18.6667C16.7072 18.6667 17.3855 18.3857 17.8856 17.8856C18.3857 17.3855 18.6666 16.7073 18.6666 16C18.6666 15.2928 18.3857 14.6145 17.8856 14.1144C17.3855 13.6143 16.7072 13.3333 16 13.3333C15.2927 13.3333 14.6145 13.6143 14.1144 14.1144C13.6143 14.6145 13.3333 15.2928 13.3333 16Z" stroke="#5D6785" stroke-width="1.5" stroke-linecap="round" stroke-linejoin="round"/>
</g>
</g>
</svg>
